<svg width="56" height="56" viewBox="0 0 56 56" fill="none" xmlns="http://www.w3.org/2000/svg">
<path d="M4.66797 27.9987C4.66797 19.1997 4.66797 14.799 7.40264 12.0667C10.135 9.33203 14.5356 9.33203 23.3346 9.33203H32.668C41.467 9.33203 45.8676 9.33203 48.6 12.0667C51.3346 14.799 51.3346 19.1997 51.3346 27.9987C51.3346 36.7977 51.3346 41.1984 48.6 43.9307C45.8676 46.6654 41.467 46.6654 32.668 46.6654H23.3346C14.5356 46.6654 10.135 46.6654 7.40264 43.9307C4.66797 41.1984 4.66797 36.7977 4.66797 27.9987Z" stroke="white" stroke-width="3"/>
<path d="M14.002 18.6653L19.0396 22.8653C23.326 26.4353 25.468 28.2203 28.002 28.2203C30.536 28.2203 32.6803 26.4353 36.9643 22.863L42.002 18.6653" stroke="white" stroke-width="3" stroke-linecap="round"/>
</svg>
