<svg width="47" height="46" viewBox="0 0 47 46" fill="none" xmlns="http://www.w3.org/2000/svg">
<path d="M24 12C30.0753 12 35 16.9247 35 23C35 29.0753 30.0753 34 24 34C22.1278 34.0027 20.2861 33.5256 18.6507 32.614L18.3152 32.4182L14.98 33.3994C14.7985 33.4529 14.6064 33.4591 14.4218 33.4175C14.2372 33.3759 14.0663 33.2879 13.9253 33.1617C13.7842 33.0356 13.6778 32.8755 13.6159 32.6967C13.5541 32.5179 13.539 32.3262 13.572 32.1399L13.6006 32.02L14.5818 28.6848C13.5445 26.9702 12.9973 25.0039 13 23C13 16.9247 17.9247 12 24 12ZM24 14.2C22.4244 14.1997 20.8776 14.6225 19.5212 15.4241C18.1647 16.2257 17.0484 17.3768 16.2887 18.7572C15.5291 20.1376 15.154 21.6966 15.2026 23.2715C15.2512 24.8464 15.7218 26.3793 16.5651 27.7102C16.7829 28.0534 16.8764 28.4758 16.8027 28.8949L16.7598 29.0742L16.2747 30.7253L17.9258 30.2402C18.4021 30.0994 18.8971 30.1852 19.2898 30.4349C20.443 31.1651 21.7502 31.617 23.1081 31.7549C24.466 31.8929 25.8373 31.7131 27.1138 31.2297C28.3902 30.7464 29.5367 29.9728 30.4627 28.97C31.3886 27.9672 32.0687 26.7628 32.449 25.452C32.8293 24.1412 32.8995 22.7598 32.654 21.4172C32.4085 20.0746 31.854 18.8075 31.0345 17.716C30.2149 16.6246 29.1527 15.7387 27.9319 15.1285C26.711 14.5183 25.3649 14.2004 24 14.2ZM20.8122 17.7024C20.934 17.6497 21.0674 17.6295 21.1993 17.644C21.3313 17.6585 21.4571 17.707 21.5646 17.7849C22.119 18.1897 22.559 18.7331 22.9374 19.2633L23.2971 19.7847L23.4654 20.0322C23.5625 20.1742 23.6102 20.3442 23.601 20.516C23.5919 20.6877 23.5264 20.8517 23.4148 20.9826L23.3323 21.0662L22.3159 21.8208C22.267 21.8562 22.2326 21.9082 22.219 21.967C22.2055 22.0259 22.2137 22.0876 22.2422 22.1409C22.4732 22.5589 22.8813 23.1826 23.3499 23.6512C23.8196 24.1198 24.4719 24.5554 24.9185 24.8117C25.0153 24.8667 25.1319 24.8491 25.2111 24.7776L25.2529 24.7281L25.914 23.7216C26.0354 23.5599 26.2146 23.4515 26.4141 23.4191C26.6137 23.3867 26.818 23.4328 26.9843 23.5478L27.5816 23.9647C28.1756 24.3882 28.7465 24.8436 29.1986 25.4211C29.2827 25.5294 29.3361 25.6583 29.3533 25.7944C29.3706 25.9304 29.3509 26.0685 29.2965 26.1944C28.8609 27.2108 27.7576 28.0765 26.6114 28.0347L26.4365 28.0237L26.2264 28.0039C26.1867 27.9992 26.1471 27.9941 26.1076 27.9885L25.8458 27.9445C24.8294 27.7531 23.2003 27.1767 21.5118 25.4893C19.8244 23.8008 19.248 22.1717 19.0566 21.1553L19.0126 20.8935L18.9851 20.6647L18.9708 20.4722C18.9691 20.4447 18.9676 20.4172 18.9664 20.3897C18.9246 19.2413 19.7947 18.138 20.8122 17.7024Z" fill="white"/>
</svg>
