<svg width="47" height="46" viewBox="0 0 47 46" fill="none" xmlns="http://www.w3.org/2000/svg">
<path d="M17.4586 15.4599C17.0384 15.8862 16.7623 16.4849 16.6084 17.6222C16.4508 18.8011 16.4495 20.3624 16.4495 22.6091V23.3909C16.4495 25.6339 16.4508 27.1939 16.6084 28.3716C16.7611 29.5102 17.0384 30.1125 17.4599 30.5425C17.8874 30.9615 18.486 31.2389 19.6222 31.3916C20.8011 31.5492 22.3623 31.5516 24.609 31.5516H25.3908C27.6338 31.5516 29.1938 31.5492 30.3727 31.3916C31.5101 31.2389 32.1123 30.9616 32.5423 30.5401C32.9614 30.1137 33.2387 29.5151 33.3914 28.3777C33.5502 27.1988 33.5514 25.6376 33.5514 23.3909V22.6091C33.5514 20.3661 33.549 18.806 33.3926 17.6283C33.2387 16.4897 32.9614 15.8875 32.5399 15.4574C32.1135 15.0384 31.5149 14.7611 30.3776 14.6084C29.1987 14.4508 27.6374 14.4484 25.3908 14.4484H24.609C22.366 14.4484 20.806 14.4508 19.6283 14.6084C18.4897 14.7611 17.8887 15.0384 17.4586 15.4599ZM24.609 12.005H25.3908C27.1561 12.005 28.9483 11.9525 30.7013 12.1871C32.1135 12.3764 33.3095 12.7808 34.2649 13.7263L34.2746 13.7373C35.219 14.6951 35.6246 15.8911 35.8139 17.3046C36.0473 19.0552 35.9947 20.8462 35.9947 22.6091V23.3909C35.9947 25.155 36.0485 26.9472 35.8127 28.7015C35.6246 30.1137 35.219 31.3097 34.2734 32.2651L34.2624 32.2748C33.3059 33.2192 32.1099 33.6236 30.6952 33.8141C28.9446 34.0475 27.1536 33.9949 25.3908 33.9949H24.609C22.8449 33.9949 21.0527 34.0475 19.2997 33.8129C17.8862 33.6236 16.6902 33.2192 15.7361 32.2736L15.7251 32.2626C14.782 31.3048 14.3764 30.1088 14.1871 28.6954C13.9525 26.946 14.005 25.155 14.005 23.3909V22.6091C14.005 20.845 13.9525 19.0528 14.1883 17.2985C14.3764 15.8862 14.782 14.6902 15.7276 13.7349L15.7373 13.7251C16.6951 12.7808 17.8911 12.3764 19.3045 12.1858C21.0564 11.9537 22.8473 12.005 24.609 12.005ZM17.714 18.6973C17.8312 24.4147 20.6899 27.8451 25.7035 27.8451H25.9967V24.5759C27.8365 24.7592 29.2292 26.1079 29.7863 27.8451H32.3884C32.1215 26.858 31.6483 25.9387 31.0002 25.1477C30.352 24.3568 29.5436 23.7122 28.6282 23.2565C29.4486 22.757 30.1571 22.0937 30.7095 21.3079C31.2619 20.5222 31.6463 19.631 31.8387 18.69H29.4784C28.9654 20.5078 27.4407 22.157 25.9967 22.311V18.6973H23.6292V25.0304C22.1632 24.6639 20.3161 22.89 20.2354 18.6973H17.714Z" fill="white"/>
</svg>
