<svg width="46" height="46" viewBox="0 0 46 46" fill="none" xmlns="http://www.w3.org/2000/svg">
<g clip-path="url(#clip0_440_283)">
<path d="M23.0011 27.4436C24.1798 27.4436 25.3103 26.9753 26.1438 26.1418C26.9773 25.3083 27.4455 24.1779 27.4455 22.9991C27.4455 21.8204 26.9773 20.6899 26.1438 19.8564C25.3103 19.0229 24.1798 18.5547 23.0011 18.5547C21.8223 18.5547 20.6919 19.0229 19.8584 19.8564C19.0249 20.6899 18.5566 21.8204 18.5566 22.9991C18.5566 24.1779 19.0249 25.3083 19.8584 26.1418C20.6919 26.9753 21.8223 27.4436 23.0011 27.4436Z" stroke="white" stroke-width="2" stroke-linecap="round" stroke-linejoin="round"/>
<path d="M13 27.4444V18.5556C13 17.0821 13.5853 15.6691 14.6272 14.6272C15.6691 13.5853 17.0821 13 18.5556 13H27.4444C28.9179 13 30.3309 13.5853 31.3728 14.6272C32.4147 15.6691 33 17.0821 33 18.5556V27.4444C33 28.9179 32.4147 30.3309 31.3728 31.3728C30.3309 32.4147 28.9179 33 27.4444 33H18.5556C17.0821 33 15.6691 32.4147 14.6272 31.3728C13.5853 30.3309 13 28.9179 13 27.4444Z" stroke="white" stroke-width="2"/>
<path d="M29.1113 16.9017L29.1249 16.8867" stroke="white" stroke-width="2" stroke-linecap="round" stroke-linejoin="round"/>
</g>
<defs>
<clipPath id="clip0_440_283">
<rect width="22" height="22" fill="white" transform="translate(12 12)"/>
</clipPath>
</defs>
</svg>
