<svg width="46" height="46" viewBox="0 0 46 46" fill="none" xmlns="http://www.w3.org/2000/svg">
<path d="M33.2323 12.5185C32.9346 12.2592 32.5754 12.0892 32.1928 12.0268C31.8102 11.9643 31.4186 12.0116 31.0597 12.1637L12.323 20.0852C11.9224 20.2579 11.5814 20.554 11.3453 20.9343C11.1091 21.3146 10.989 21.7611 11.0008 22.2146C11.0126 22.6681 11.1558 23.1071 11.4113 23.4733C11.6669 23.8396 12.0228 24.1159 12.4317 24.2654L16.2217 25.6461L18.3337 32.9621C18.3626 33.0597 18.4045 33.1525 18.4581 33.238C18.4665 33.2511 18.478 33.2599 18.4863 33.2741C18.5479 33.3639 18.6223 33.4433 18.7069 33.5095C18.7305 33.5289 18.755 33.5471 18.7801 33.5642C18.8792 33.6331 18.9888 33.6834 19.1042 33.7131L19.1178 33.7142L19.1241 33.7175C19.194 33.7322 19.2651 33.7395 19.3363 33.7394L19.3552 33.7361C19.4622 33.7343 19.5684 33.7151 19.6699 33.6792C19.6939 33.6704 19.7138 33.6573 19.7368 33.6464C19.8127 33.6138 19.8846 33.5719 19.9511 33.5215C20.0041 33.4744 20.057 33.4274 20.11 33.3803L22.935 30.1143L27.1484 33.5325C27.5193 33.835 27.9758 33.9995 28.4459 34C28.9386 33.9994 29.4161 33.8214 29.7984 33.4959C30.1806 33.1703 30.4443 32.7171 30.5453 32.2121L33.9568 14.6754C34.034 14.2809 34.0073 13.8718 33.8797 13.4919C33.7521 13.112 33.5283 12.7755 33.2323 12.5185ZM19.7504 25.9942C19.6056 26.1456 19.5066 26.3383 19.466 26.5483L19.1419 28.195L18.3222 25.3559L22.5722 23.0381L19.7504 25.9942ZM28.4302 31.8015L23.4504 27.7614C23.2421 27.593 22.9808 27.513 22.7186 27.5374C22.4565 27.5617 22.2127 27.6886 22.0359 27.8928L21.1304 28.9384L21.4504 27.3103L28.8558 19.5553C29.0315 19.3701 29.1382 19.1254 29.1568 18.8651C29.1754 18.6048 29.1046 18.3461 28.9571 18.1357C28.8097 17.9252 28.5953 17.7769 28.3526 17.7174C28.1099 17.6579 27.8549 17.6911 27.6336 17.8111L17.0059 23.6052L13.1113 22.1129L31.9087 14.2396L28.4302 31.8015Z" fill="white"/>
</svg>
