<svg width="47" height="46" viewBox="0 0 47 46" fill="none" xmlns="http://www.w3.org/2000/svg">
<path d="M25 12C26.197 12 27.4248 12.0303 28.6148 12.0798L30.0204 12.1457L31.3658 12.2241L32.6258 12.308L33.7766 12.396C35.0255 12.4899 36.2006 13.0133 37.0953 13.8742C37.99 14.7351 38.547 15.8782 38.6682 17.1026L38.7242 17.687L38.8292 18.9382C38.9272 20.2349 39 21.6484 39 23C39 24.3516 38.9272 25.7651 38.8292 27.0618L38.7242 28.313C38.706 28.5138 38.6878 28.7076 38.6682 28.8974C38.5469 30.122 37.9898 31.2653 37.0948 32.1262C36.1998 32.9871 35.0243 33.5104 33.7752 33.604L32.6272 33.6906L31.3672 33.7759L30.0204 33.8542L28.6148 33.9202C27.4106 33.9716 26.2054 33.9982 25 34C23.7946 33.9982 22.5894 33.9716 21.3852 33.9202L19.9796 33.8542L18.6342 33.7759L17.3742 33.6906L16.2234 33.604C14.9745 33.5101 13.7994 32.9867 12.9047 32.1258C12.01 31.2649 11.453 30.1218 11.3318 28.8974L11.2758 28.313L11.1708 27.0618C11.0638 25.7103 11.0068 24.3555 11 23C11 21.6484 11.0728 20.2349 11.1708 18.9382L11.2758 17.687C11.294 17.4862 11.3122 17.2924 11.3318 17.1026C11.453 15.8785 12.0097 14.7354 12.9041 13.8746C13.7986 13.0137 14.9734 12.4902 16.222 12.396L17.3714 12.308L18.6314 12.2241L19.9782 12.1457L21.3838 12.0798C22.5885 12.0284 23.7942 12.0018 25 12ZM25 14.75C23.845 14.75 22.6564 14.7803 21.5 14.827L20.1308 14.8916L18.8162 14.9672L17.5814 15.0497L16.4502 15.1364C15.8557 15.1778 15.2953 15.4246 14.8683 15.8331C14.4414 16.2416 14.1755 16.7854 14.1178 17.368C13.954 19.0304 13.8 21.0998 13.8 23C13.8 24.9002 13.954 26.9696 14.1178 28.632C14.2368 29.831 15.2056 30.7633 16.4502 30.8636L17.5814 30.9489L18.8162 31.0314L20.1308 31.1084L21.5 31.173C22.6564 31.2197 23.845 31.25 25 31.25C26.155 31.25 27.3436 31.2197 28.5 31.173L29.8692 31.1084L31.1838 31.0327L32.4186 30.9502L33.5498 30.8636C34.1443 30.8222 34.7047 30.5754 35.1317 30.1669C35.5586 29.7584 35.8245 29.2146 35.8822 28.632C36.046 26.9696 36.2 24.9002 36.2 23C36.2 21.0998 36.046 19.0304 35.8822 17.368C35.8245 16.7854 35.5586 16.2416 35.1317 15.8331C34.7047 15.4246 34.1443 15.1778 33.5498 15.1364L32.4186 15.0511L31.1838 14.9686L29.8692 14.8916L28.5 14.827C27.334 14.7777 26.1671 14.7521 25 14.75ZM22.2 19.6656C22.1999 19.5312 22.2332 19.3989 22.2971 19.28C22.361 19.1612 22.4534 19.0594 22.5665 18.9837C22.6795 18.9079 22.8096 18.8604 22.9456 18.8453C23.0815 18.8302 23.2192 18.8479 23.3466 18.897L23.46 18.952L29.34 22.285C29.4571 22.3514 29.5561 22.4445 29.6287 22.5565C29.7014 22.6685 29.7454 22.796 29.7571 22.9283C29.7687 23.0606 29.7477 23.1937 29.6958 23.3163C29.644 23.4388 29.5627 23.5473 29.459 23.6325L29.34 23.715L23.46 27.0494C23.3415 27.1168 23.208 27.1547 23.0712 27.1598C22.9344 27.165 22.7984 27.1372 22.675 27.0789C22.5516 27.0206 22.4446 26.9336 22.3632 26.8254C22.2819 26.7172 22.2288 26.5911 22.2084 26.4581L22.2 26.3344V19.6656Z" fill="white"/>
</svg>
